# xmcd
#
# Track frame offsets:
#	150
#	11695
#	24472
#	37735
#	49705
#	61532
#	73312
#	86345
#	100142
#	113632
#	124815
#	137415
#	150715
#	165327
#	179697
#	193652
#	205965
#	219082
#	232480
#	243655
#
# Disc length: 3422 seconds
#
# Revision: 1
# Processed by: cddbd v1.4PL0 Copyright (c) Steve Scherf et al.
# Submitted via: CDmax 2.0
#
DISCID=0d0d5c14
DTITLE=Big Bill Broonzy - Where The Blues Began, vol 2
DYEAR=2000
DGENRE=Blues
TTITLE0=Good Time Tonight
TTITLE1=W.P.A. Rag
TTITLE2=It's a Lowdown Dirty Shame
TTITLE3=Trucking Little Woman
TTITLE4=Too Many Drivers
TTITLE5=Just a Dream
TTITLE6=When I Benn Drinking
TTITLE7=Key To the Highway
TTITLE8=Wee Wee Hours
TTITLE9=All By Myself
TTITLE10=I Feel So Good
TTITLE11=Where the Blues Began
TTITLE12=Martha Blues
TTITLE13=Texas Tornado Blues
TTITLE14=I Feel Like Crying
TTITLE15=Partnership Woman
TTITLE16=Stop Lying Woman
TTITLE17=Ramblin' Woman
TTITLE18=I Stay Blue All the Time
TTITLE19=You've Been Mistreating Me
EXTD=YEAR: 2000
EXTT0=(Broonzy)
EXTT1=(Broonzy)
EXTT2=(Broonzy)
EXTT3=(Broonzy)
EXTT4=(Broonzy)
EXTT5=(Broonzy)
EXTT6=(Broonzy)
EXTT7=(Broonzy/Segar)
EXTT8=
EXTT9=(Broonzy)
EXTT10=(Broonzy)
EXTT11=
EXTT12=
EXTT13=(Broonzy)
EXTT14=
EXTT15=(Broonzy)
EXTT16=(Broonzy)
EXTT17=
EXTT18=(Broonzy)
EXTT19=(Broonzy)
PLAYORDER=
